<?xml version="1.0" standalone="no"?>
<!DOCTYPE svg PUBLIC "-//W3C//DTD SVG 20010904//EN"
 "http://www.w3.org/TR/2001/REC-SVG-20010904/DTD/svg10.dtd">
<svg version="1.0" xmlns="http://www.w3.org/2000/svg"
 width="792.000000pt" height="1024.000000pt" viewBox="0 0 792.000000 1024.000000"
 preserveAspectRatio="xMidYMid meet">

<g transform="translate(0.000000,1024.000000) scale(0.100000,-0.100000)"
fill="#000000" stroke="none">
<path d="M4508 9639 c-134 -21 -480 -177 -693 -314 -198 -126 -429 -375 -574
-616 -155 -260 -241 -509 -309 -893 l-7 -39 -67 91 c-108 145 -207 222 -345
268 -67 23 -102 27 -248 33 -93 4 -172 5 -174 4 -3 -2 6 -11 20 -20 52 -35
147 -141 182 -204 52 -93 83 -186 106 -325 58 -337 54 -531 -19 -939 -30 -172
-36 -352 -16 -501 31 -235 104 -468 192 -610 43 -69 44 -74 44 -153 0 -139 51
-321 106 -383 14 -15 11 -23 -36 -92 -273 -405 -728 -784 -1183 -987 -71 -31
-78 -37 -83 -68 -9 -45 23 -107 77 -151 50 -40 178 -106 249 -127 30 -9 73
-29 95 -44 116 -77 267 -129 376 -129 48 0 67 -6 106 -30 62 -39 158 -69 249
-77 107 -9 156 2 213 47 110 87 282 334 411 590 l33 65 13 -38 c36 -102 115
-150 254 -154 58 -1 87 -6 91 -15 4 -7 14 -55 24 -107 56 -319 211 -633 346
-702 52 -26 59 -24 59 17 0 31 -9 47 -59 100 -147 157 -234 401 -286 799 -26
208 -18 350 27 440 55 110 141 171 255 183 204 21 312 -31 395 -190 l33 -63
-1 -185 c-1 -201 -18 -328 -74 -543 -50 -196 -131 -355 -234 -463 -36 -37 -46
-55 -46 -81 0 -42 22 -44 76 -5 148 108 266 354 337 706 l22 110 57 -3 c81 -4
160 15 207 49 39 29 81 93 81 125 0 34 18 9 75 -102 140 -273 325 -515 430
-564 92 -42 309 -9 417 65 27 18 53 24 119 28 107 7 220 45 319 106 41 25 105
57 143 69 190 64 317 166 317 253 0 19 -4 40 -8 46 -4 6 -60 36 -124 67 -321
153 -587 344 -838 603 -125 129 -213 235 -292 352 l-50 75 21 36 c98 161 126
347 73 471 l-19 45 42 50 c222 265 361 721 341 1116 -9 171 -33 307 -97 553
l-11 40 -41 -80 c-95 -180 -187 -264 -292 -264 -120 0 -205 98 -205 234 0 28
10 105 21 171 40 236 36 470 -11 758 -34 204 -121 397 -326 726 l-89 142 -6
-243 c-6 -240 -15 -321 -59 -538 -75 -369 -179 -484 -343 -380 -196 124 -311
630 -228 1001 52 233 189 470 395 686 54 57 97 105 95 106 -2 2 -25 0 -51 -4z
m-319 -230 c-6 -12 -31 -52 -55 -90 -64 -99 -132 -244 -148 -319 -27 -123 -55
-295 -61 -380 -11 -166 29 -417 90 -568 84 -206 216 -329 367 -340 65 -5 70
-3 123 32 66 44 105 94 155 201 70 150 115 357 127 578 7 148 5 148 77 8 86
-167 142 -335 172 -517 24 -146 22 -404 -5 -567 -12 -70 -21 -159 -21 -197 0
-39 -2 -70 -4 -70 -2 0 -33 17 -67 39 -170 103 -364 175 -598 222 -81 17 -154
23 -311 26 -141 3 -219 9 -250 19 -47 15 -193 45 -197 40 -2 -1 17 -17 42 -34
25 -17 45 -36 45 -40 0 -5 -39 -17 -87 -27 -483 -96 -870 -411 -965 -787 -26
-103 -22 -262 9 -348 l20 -55 -55 -59 c-30 -33 -60 -73 -67 -90 -16 -37 -18
-29 -40 116 -26 179 -29 274 -12 368 9 47 23 123 32 170 8 47 22 162 30 255
36 406 8 657 -105 937 l-48 120 43 -5 c140 -20 288 -122 370 -257 43 -71 82
-189 97 -290 l11 -80 52 0 52 0 7 103 c17 274 60 544 112 709 48 153 204 438
332 608 113 149 326 347 503 468 49 33 217 122 231 122 5 0 4 -10 -3 -21z m6
-2039 c172 -19 311 -50 426 -93 68 -26 249 -114 249 -122 0 -2 -16 -12 -35
-21 -24 -11 -35 -23 -35 -38 0 -76 139 -133 222 -90 l30 16 67 -73 c76 -83
108 -132 139 -209 67 -171 82 -326 41 -435 -57 -155 -131 -229 -278 -280 -215
-75 -739 -132 -1131 -122 -523 14 -840 85 -1036 233 -119 91 -146 144 -152
305 -5 137 16 237 73 354 63 127 200 270 330 346 173 100 484 205 695 234 135
18 202 18 395 -5z m748 -276 c42 -22 68 -45 61 -55 -14 -24 -140 1 -159 30
-23 39 39 54 98 25z m683 -171 c51 -411 -38 -854 -235 -1161 l-53 -81 -25 16
c-21 14 -24 22 -19 52 7 47 34 81 86 110 104 58 112 257 14 328 l-27 20 23 64
c53 152 33 329 -57 508 -27 52 -49 98 -51 103 -2 4 23 8 55 8 73 0 142 32 216
100 29 27 54 47 56 45 2 -2 9 -53 17 -112z m-2895 -846 c99 -96 282 -174 519
-221 203 -40 400 -56 710 -56 713 0 1098 75 1298 254 35 31 69 56 76 56 16 0
46 -58 46 -89 0 -12 -18 -34 -47 -56 -62 -47 -117 -122 -144 -196 -39 -105
-114 -152 -273 -168 -140 -14 -286 3 -496 59 -74 20 -99 22 -195 16 -139 -8
-282 -37 -410 -82 -136 -48 -179 -56 -255 -49 -160 15 -285 64 -417 164 -129
97 -145 102 -325 99 -169 -3 -209 5 -232 51 -38 74 -25 132 50 223 22 27 39
48 40 48 0 0 25 -24 55 -53z m-97 -363 c17 -7 22 -34 6 -34 -5 0 -14 9 -20 20
-12 22 -10 23 14 14z m398 -61 c34 -17 106 -59 159 -95 207 -141 370 -162 610
-80 199 68 287 85 434 84 110 0 144 -4 220 -27 124 -36 177 -43 345 -44 200
-1 293 23 391 100 60 47 76 38 33 -18 -142 -187 -547 -277 -1244 -278 -340 0
-479 11 -701 55 -225 45 -363 101 -456 184 -75 68 -111 155 -59 142 13 -3 35
-1 48 4 43 19 151 5 220 -27z m2285 -190 c5 -16 8 -67 8 -114 0 -80 -3 -91
-39 -163 -100 -197 -341 -312 -756 -363 -208 -25 -897 -25 -1081 0 -437 59
-673 198 -733 430 -21 79 -32 227 -18 227 7 0 35 -18 64 -40 159 -120 448
-208 806 -244 176 -18 668 -22 857 -6 410 34 673 114 812 245 32 30 61 54 65
55 4 0 11 -12 15 -27z m-2471 -554 c24 -39 196 -122 326 -157 103 -28 366 -72
433 -72 5 0 -17 -18 -50 -40 -33 -22 -69 -47 -80 -55 -18 -12 -31 -10 -120 19
-131 43 -308 118 -381 162 -54 32 -60 34 -69 18 -45 -77 -179 -269 -250 -357
-233 -289 -494 -517 -770 -671 -100 -55 -100 -55 -150 -44 -69 15 -143 50
-185 87 -41 37 -50 27 105 112 144 79 392 245 530 356 157 125 405 376 507
513 47 63 90 125 97 138 10 18 15 20 31 12 10 -6 22 -15 26 -21z m2408 -36
c141 -213 399 -476 661 -674 108 -82 298 -206 425 -278 69 -39 132 -75 140
-80 13 -7 11 -13 -10 -35 -31 -34 -132 -84 -190 -94 -41 -8 -53 -5 -124 31
-179 88 -380 240 -571 432 -152 151 -271 297 -393 480 -47 72 -89 134 -93 139
-4 5 -21 -1 -38 -13 -66 -47 -317 -154 -456 -193 l-50 -15 -76 53 -77 52 97
11 c321 39 522 104 656 210 28 22 51 40 52 40 2 1 23 -29 47 -66z m-2189 -251
c84 -49 183 -95 245 -113 25 -7 48 -15 52 -18 4 -4 -14 -30 -40 -58 l-47 -52
-80 28 c-44 15 -104 40 -133 55 l-52 26 -37 -57 c-152 -239 -293 -441 -406
-583 -79 -98 -231 -254 -285 -292 -40 -27 -50 -30 -107 -26 -47 3 -81 13 -136
41 -87 44 -120 67 -102 74 21 8 203 132 301 205 237 178 503 476 675 756 44
72 52 81 66 69 9 -7 48 -32 86 -55z m1045 58 c163 -21 328 -98 430 -200 73
-72 151 -184 170 -244 17 -52 6 -147 -21 -196 -37 -66 -104 -100 -197 -100
l-43 0 7 135 c6 113 4 146 -11 200 -32 120 -124 235 -237 296 -63 34 -63 34
-198 34 -133 0 -137 -1 -202 -33 -118 -58 -223 -198 -248 -332 -7 -34 -8 -103
-4 -179 l7 -124 -66 5 c-120 10 -183 70 -199 190 -10 68 -9 77 14 128 37 82
142 214 211 266 168 126 377 181 587 154z m978 -52 c50 -89 179 -267 278 -385
173 -205 399 -400 629 -545 47 -29 85 -56 85 -60 0 -11 -112 -75 -163 -92 -26
-9 -70 -16 -98 -16 -42 0 -58 6 -102 39 -142 104 -392 417 -617 771 -51 80
-94 146 -95 148 -2 2 -25 -8 -51 -22 -56 -29 -133 -59 -186 -74 -36 -10 -37
-9 -82 43 l-46 53 68 22 c67 22 255 116 302 151 14 10 30 19 37 19 6 0 25 -24
41 -52z m-1942 -325 c29 -14 54 -32 54 -39 0 -20 -95 -227 -155 -336 -72 -130
-184 -299 -270 -405 l-66 -83 -76 0 c-74 0 -160 17 -234 47 l-38 15 126 121
c199 193 379 421 488 622 21 39 45 78 53 87 16 19 26 16 118 -29z m1869 -15
c119 -223 296 -459 482 -639 54 -52 111 -105 127 -117 16 -12 26 -25 23 -28
-3 -3 -36 -17 -74 -31 -47 -17 -97 -27 -161 -31 -92 -5 -93 -4 -123 24 -79 74
-244 316 -340 499 -49 93 -139 289 -139 304 0 11 130 71 156 71 15 0 29 -15
49 -52z"/>
<path d="M4056 7359 c-51 -12 -91 -42 -106 -79 -11 -26 -10 -33 5 -50 41 -45
174 -11 215 54 28 46 25 62 -11 75 -36 13 -49 13 -103 0z m94 -39 c0 -29 -88
-80 -135 -80 -21 0 -35 17 -29 34 14 37 164 78 164 46z"/>
<path d="M4453 7240 c-39 -23 -40 -27 -10 -71 43 -64 172 -89 219 -41 16 16
18 23 9 40 -23 43 -111 92 -165 92 -12 0 -36 -9 -53 -20z m120 -36 c42 -22 68
-45 61 -55 -9 -15 -84 -10 -120 7 -39 19 -61 49 -41 57 25 11 69 6 100 -9z"/>
<path d="M3493 7233 c-87 -60 96 -170 202 -121 31 14 32 37 3 73 -43 55 -157
82 -205 48z m109 -29 c57 -19 90 -51 68 -64 -23 -15 -61 -11 -106 9 -52 24
-63 40 -39 58 23 16 22 16 77 -3z"/>
<path d="M3130 7127 c-76 -38 8 -137 119 -141 51 -1 101 19 101 41 0 29 -36
67 -85 89 -56 27 -98 30 -135 11z m138 -54 c49 -32 52 -40 17 -49 -54 -13
-145 25 -145 62 0 26 81 18 128 -13z"/>
<path d="M4152 7119 c-46 -23 -80 -74 -69 -103 9 -23 56 -38 97 -31 44 8 116
50 130 75 15 28 12 67 -6 74 -34 13 -110 5 -152 -15z m122 -15 c14 -5 14 -8 0
-29 -27 -41 -154 -76 -154 -42 0 44 102 91 154 71z"/>
<path d="M4462 7004 c-12 -8 -22 -25 -22 -38 0 -26 43 -70 83 -85 65 -25 167
-5 167 33 0 24 -39 63 -85 85 -53 25 -112 27 -143 5z m135 -41 c45 -21 61 -42
42 -54 -40 -25 -159 17 -159 57 0 27 57 26 117 -3z"/>
<path d="M3705 7001 c-57 -14 -96 -42 -111 -78 -14 -32 -14 -37 2 -54 39 -44
176 -9 215 55 29 47 25 64 -18 75 -42 12 -45 12 -88 2z m85 -41 c0 -16 -39
-51 -76 -66 -91 -38 -129 16 -40 57 44 20 116 26 116 9z"/>
<path d="M4841 6901 c-47 -47 -51 -162 -9 -216 45 -58 100 -4 106 103 4 62 2
71 -23 100 -31 37 -47 40 -74 13z m57 -52 c19 -36 -1 -149 -27 -149 -27 0 -41
108 -19 155 13 30 28 28 46 -6z"/>
<path d="M3970 6882 c-31 -25 -21 -63 25 -97 45 -35 142 -46 180 -21 31 20 31
35 3 71 -46 58 -162 84 -208 47z m125 -31 c44 -19 72 -47 61 -59 -13 -13 -90
-6 -124 12 -86 44 -27 88 63 47z"/>
<path d="M3220 6829 c-35 -15 -70 -49 -70 -70 0 -33 48 -59 107 -59 83 0 165
46 150 84 -15 40 -133 68 -187 45z m141 -46 c20 -20 -39 -48 -98 -48 -67 0
-88 18 -53 47 20 16 35 19 83 16 31 -2 62 -9 68 -15z"/>
<path d="M3737 6803 c-35 -62 12 -166 94 -208 59 -31 92 8 69 82 -19 58 -49
102 -80 118 -31 16 -76 20 -83 8z m82 -54 c26 -24 51 -78 51 -109 0 -23 -1
-24 -33 -9 -29 13 -77 85 -77 116 0 30 28 30 59 2z"/>
<path d="M4393 6803 c-18 -7 -17 -87 1 -121 19 -35 75 -88 103 -96 63 -19 80
41 38 131 -32 71 -92 107 -142 86z m69 -45 c41 -32 78 -138 49 -138 -33 0
-101 91 -101 135 0 18 30 20 52 3z"/>
<path d="M3919 4481 c-77 -42 -156 -157 -193 -280 -31 -106 -38 -207 -22 -322
31 -219 101 -376 223 -498 l73 -73 38 27 c191 141 315 500 268 774 -28 161
-98 295 -187 357 -54 37 -146 44 -200 15z m130 -56 c43 -22 134 -127 165 -191
53 -107 67 -226 42 -356 -26 -135 -72 -238 -179 -400 l-70 -107 -25 37 c-81
118 -109 164 -149 248 -107 227 -115 445 -20 604 54 91 147 180 189 180 10 0
32 -7 47 -15z"/>
</g>
</svg>
